<svg preserveAspectRatio="none" width="100%" height="100%" overflow="visible" style="display: block;" viewBox="0 0 24 24" fill="none" xmlns="http://www.w3.org/2000/svg">
<g id="Frame">
<path id="Union" d="M15.5345 7.00487C18.3669 7.22321 20.3864 15.0861 19.9457 15.8281L19.8402 15.9785C18.6844 17.3749 15.4086 14.0636 12.0052 14.0635C8.60207 14.0637 5.32727 17.3745 4.17125 15.9785L4.06579 15.8281C3.63145 15.0981 5.58193 7.46702 8.34508 7.02148L8.47692 7.00487C10.0127 6.88701 9.82689 8.76928 12.0052 8.76952C14.184 8.76939 13.9984 6.8867 15.5345 7.00487ZM15.4886 7.60351C15.246 7.58484 15.1043 7.64077 14.9808 7.72558C14.8202 7.83605 14.6904 7.99044 14.4535 8.24901C14.2364 8.48592 13.9539 8.77817 13.5531 9.00194C13.1429 9.23087 12.6428 9.37008 12.0052 9.37011C11.3679 9.37005 10.8685 9.23079 10.4584 9.00194C10.0575 8.7782 9.77512 8.48594 9.55797 8.24901C9.32087 7.99029 9.19034 7.83607 9.02965 7.72558C8.90629 7.64084 8.76525 7.5849 8.52282 7.60351C8.08267 7.63738 7.56467 7.98892 7.01207 8.73046C6.47665 9.44902 5.99562 10.42 5.60387 11.4365C5.21388 12.4485 4.92293 13.4757 4.75817 14.2871C4.6756 14.6938 4.62785 15.0343 4.61168 15.2842C4.60359 15.4094 4.60372 15.4987 4.60875 15.5557C4.60892 15.5575 4.60858 15.5598 4.60875 15.5615C4.66617 15.6437 4.71941 15.6764 4.76891 15.6943C4.8402 15.7201 4.96058 15.7359 5.16051 15.7041C5.58144 15.637 6.13483 15.4016 6.85778 15.0635C8.2242 14.4243 10.085 13.464 12.0052 13.4639C13.9257 13.4639 15.7872 14.4243 17.1537 15.0635C17.8767 15.4017 18.43 15.637 18.8509 15.7041C19.0509 15.7359 19.1713 15.7201 19.2425 15.6943C19.2917 15.6765 19.3438 15.6436 19.4007 15.5625C19.401 15.5604 19.4015 15.5579 19.4017 15.5557C19.4068 15.4987 19.4079 15.4094 19.3998 15.2842C19.3836 15.0343 19.3349 14.6939 19.2523 14.2871C19.0875 13.4757 18.7976 12.4485 18.4076 11.4365C18.0159 10.4201 17.5348 9.44905 16.9994 8.73046C16.4469 7.98902 15.9287 7.63755 15.4886 7.60351ZM16.8578 10.9756C17.3446 10.9758 17.7402 11.3706 17.7406 11.8574L17.7357 11.9482C17.6905 12.3929 17.3143 12.7401 16.8578 12.7402L16.7679 12.7353C16.3231 12.6901 15.9759 12.3142 15.9759 11.8574C15.9763 11.3706 16.3709 10.9758 16.8578 10.9756ZM16.8578 11.376C16.5919 11.3762 16.3767 11.5915 16.3763 11.8574C16.3763 12.1237 16.5917 12.3396 16.8578 12.3398C17.1239 12.3396 17.3402 12.1237 17.3402 11.8574C17.3398 11.5915 17.1237 11.3762 16.8578 11.376ZM8.47692 9.65136C9.20764 9.65144 9.80007 10.2438 9.80016 10.9746C9.80013 11.7054 9.20767 12.2978 8.47692 12.2978C7.74612 12.2978 7.15371 11.7054 7.15368 10.9746C7.15376 10.2438 7.74616 9.65139 8.47692 9.65136ZM8.47692 10.251C8.07757 10.251 7.75337 10.5751 7.75329 10.9746C7.75332 11.3741 8.07754 11.6982 8.47692 11.6982C8.87626 11.6982 9.20052 11.3741 9.20055 10.9746C9.20046 10.5752 8.87622 10.2511 8.47692 10.251ZM15.5336 9.20995C16.0206 9.20995 16.4161 9.60472 16.4164 10.0918L16.4115 10.1826C16.366 10.6272 15.9901 10.9746 15.5336 10.9746L15.4437 10.9697C14.9992 10.9244 14.6519 10.5483 14.6517 10.0918C14.652 9.60497 15.0468 9.21035 15.5336 9.20995ZM15.5336 9.61034C15.2678 9.61074 15.0523 9.82586 15.0521 10.0918C15.0523 10.3577 15.2678 10.5738 15.5336 10.5742C15.7997 10.5742 16.0158 10.358 16.016 10.0918C16.0157 9.82561 15.7997 9.61034 15.5336 9.61034Z" fill="black"/>
</g>
</svg>
