<svg preserveAspectRatio="none" width="100%" height="100%" overflow="visible" style="display: block;" viewBox="0 0 24 24" fill="none" xmlns="http://www.w3.org/2000/svg">
<g id="Frame">
<path id="Vector" d="M17.1021 4.39062C17.9299 4.17468 18.5871 4.34651 19.1226 4.88867C19.6586 5.43141 19.83 6.09933 19.6157 6.94141C19.3902 7.82778 18.9893 8.55587 18.4175 9.13477L18.4165 9.13574C17.827 9.7398 17.1998 10.1157 16.5356 10.2812C15.8774 10.4453 15.2034 10.3842 14.5044 10.0859L14.3169 10.0059L14.1733 10.1514L12.4565 11.8887L12.2485 12.0996L12.4565 12.3105L19.3872 19.3262L19.1431 19.5732L12.2183 12.6084L12.0054 12.3945L11.7925 12.6084L4.8667 19.5723L4.62354 19.3262L13.9351 9.89941L14.0747 9.75781L13.9985 9.57324C13.7027 8.86403 13.642 8.17961 13.8052 7.51074C13.9698 6.83667 14.3419 6.20101 14.938 5.60352L14.939 5.60254C15.5106 5.02384 16.2284 4.61858 17.1021 4.39062ZM9.71533 9.55664L7.74561 11.5508L5.35791 9.13379C4.70723 8.4762 4.36228 7.70567 4.31201 6.81152C4.26805 6.02932 4.45858 5.31538 4.89111 4.66211L9.71533 9.55664Z" stroke="black" stroke-width="0.6"/>
</g>
</svg>
