<svg preserveAspectRatio="none" width="100%" height="100%" overflow="visible" style="display: block;" viewBox="0 0 20 20" fill="none" xmlns="http://www.w3.org/2000/svg">
<g id="Frame">
<path id="Vector" d="M3.33333 9.16667V12.5C3.33333 15.2498 3.33333 16.6247 4.18761 17.4791C5.04187 18.3333 6.41681 18.3333 9.16667 18.3333H10.8333C13.5832 18.3333 14.9581 18.3333 15.8124 17.4791C16.6667 16.6247 16.6667 15.2498 16.6667 12.5V9.16667" stroke="#000000" stroke-width="0.833333" stroke-linecap="round" stroke-linejoin="round"/>
<path id="Vector_2" d="M2.5 7.5C2.5 6.87693 2.5 6.56538 2.66747 6.33333C2.77718 6.18132 2.93498 6.05508 3.125 5.96731C3.41507 5.83333 3.80448 5.83333 4.58333 5.83333H15.4167C16.1955 5.83333 16.5849 5.83333 16.875 5.96731C17.065 6.05508 17.2228 6.18132 17.3325 6.33333C17.5 6.56538 17.5 6.87693 17.5 7.5C17.5 8.12308 17.5 8.43458 17.3325 8.66667C17.2228 8.81867 17.065 8.94492 16.875 9.03267C16.5849 9.16667 16.1955 9.16667 15.4167 9.16667H4.58333C3.80448 9.16667 3.41507 9.16667 3.125 9.03267C2.93498 8.94492 2.77718 8.81867 2.66747 8.66667C2.5 8.43458 2.5 8.12308 2.5 7.5Z" stroke="#000000" stroke-width="0.833333" stroke-linejoin="round"/>
<path id="Vector_3" d="M5 3.15476C5 2.33291 5.66624 1.66667 6.48809 1.66667H6.78572C8.56092 1.66667 10 3.10575 10 4.88095V5.83333H7.67857C6.19923 5.83333 5 4.63409 5 3.15476Z" stroke="#000000" stroke-width="0.833333" stroke-linejoin="round"/>
<path id="Vector_4" d="M15 3.15476C15 2.33291 14.3338 1.66667 13.5119 1.66667H13.2142C11.4391 1.66667 10 3.10575 10 4.88095V5.83333H12.3214C13.8007 5.83333 15 4.63409 15 3.15476Z" stroke="#000000" stroke-width="0.833333" stroke-linejoin="round"/>
<path id="Vector_5" d="M10 9.16667V18.3333" stroke="#000000" stroke-width="0.833333" stroke-linecap="round" stroke-linejoin="round"/>
</g>
</svg>
