<svg width="20" height="20" viewBox="0 0 20 20" fill="none" xmlns="http://www.w3.org/2000/svg">
<path d="M17.4522 14.0294C16.9053 10.7388 15.2027 8.28836 13.7225 6.84909C13.2917 6.43027 13.0764 6.22086 12.6007 6.02706C12.1249 5.83325 11.716 5.83325 10.8982 5.83325H9.10183C8.28401 5.83325 7.87508 5.83325 7.39935 6.02706C6.92361 6.22086 6.70826 6.43027 6.27753 6.84909C4.79735 8.28836 3.09467 10.7388 2.54772 14.0294C2.14077 16.4778 4.39939 18.3333 6.9236 18.3333H13.0764C15.6006 18.3333 17.8592 16.4778 17.4522 14.0294Z" stroke="#BBBBBB" stroke-width="0.6" stroke-linecap="round" stroke-linejoin="round"/>
<path d="M6.04735 3.70247C5.87542 3.45223 5.62623 3.11257 6.14099 3.03512C6.6701 2.95551 7.2195 3.3177 7.75729 3.31026C8.2438 3.30352 8.49166 3.08774 8.75758 2.77965C9.03758 2.45522 9.47116 1.66675 10.0002 1.66675C10.5292 1.66675 10.9627 2.45522 11.2427 2.77965C11.5087 3.08774 11.7565 3.30352 12.243 3.31026C12.7808 3.3177 13.3302 2.95551 13.8593 3.03512C14.3741 3.11257 14.1249 3.45223 13.953 3.70247L13.1756 4.83395C12.8431 5.31796 12.6768 5.55997 12.3288 5.6967C11.9809 5.83341 11.5312 5.83341 10.632 5.83341H9.36833C8.46908 5.83341 8.01941 5.83341 7.67146 5.6967C7.32351 5.55997 7.15725 5.31796 6.8247 4.83395L6.04735 3.70247Z" stroke="#BBBBBB" stroke-width="0.6" stroke-linecap="round" stroke-linejoin="round"/>
<path d="M11.3554 10.7656C11.1753 10.1005 10.2583 9.50031 9.15751 9.94931C8.05675 10.3982 7.8819 11.8428 9.54692 11.9963C10.2994 12.0656 10.7901 11.9158 11.2393 12.3397C11.6885 12.7636 11.7719 13.9424 10.6236 14.2601C9.47526 14.5777 8.33817 14.0814 8.21436 13.3765M9.86792 9.16064V9.79431M9.86792 14.3578V14.994" stroke="#BBBBBB" stroke-width="0.6" stroke-linecap="round" stroke-linejoin="round"/>
</svg>
