<svg preserveAspectRatio="none" width="100%" height="100%" overflow="visible" style="display: block;" viewBox="0 0 24 24" fill="none" xmlns="http://www.w3.org/2000/svg">
<g id="Frame">
<path id="Union" d="M14.4061 19.2002L14.4022 19.2793C14.3839 19.4622 14.3027 19.6344 14.1717 19.7656L14.1131 19.8183C13.9707 19.9352 13.7911 20 13.6053 20H9.60528L9.52617 19.9961C9.36919 19.9804 9.22044 19.9184 9.09844 19.8183L9.03985 19.7656C8.90874 19.6344 8.82761 19.4622 8.80938 19.2793L8.80547 19.2002V18.3994H14.4061V19.2002ZM9.40508 19.2002C9.40515 19.253 9.42634 19.3043 9.46367 19.3418C9.50113 19.3792 9.55231 19.4003 9.60528 19.4004H13.6053C13.6582 19.4004 13.7094 19.3791 13.7469 19.3418C13.7842 19.3043 13.8054 19.253 13.8055 19.2002V19H9.40508V19.2002ZM14.0057 16.7998C14.1117 16.7998 14.2139 16.8421 14.2889 16.917C14.3637 16.9919 14.406 17.0943 14.4061 17.2002L14.3982 17.2783C14.3829 17.355 14.3449 17.4262 14.2889 17.4824L14.2273 17.5322C14.1621 17.5757 14.0852 17.5996 14.0057 17.5996H9.20586L9.12676 17.5918C9.07548 17.5815 9.02669 17.5613 8.98321 17.5322L8.92266 17.4824C8.84792 17.4075 8.80557 17.306 8.80547 17.2002C8.80558 17.0942 8.84773 16.9919 8.92266 16.917C8.97881 16.8609 9.05009 16.823 9.12676 16.8076L9.20586 16.7998H14.0057ZM11.6063 3.99998C12.659 3.9992 13.6921 4.29093 14.5887 4.84275C15.4776 5.38853 16.1938 6.17525 16.6541 7.1113C17.1103 8.04035 17.2894 9.08127 17.1697 10.1094C17.0484 11.1394 16.6339 12.1138 15.9764 12.916C15.5913 13.3866 14.614 15.1291 14.4061 16.001H8.80547C8.59747 15.1281 7.61807 13.3846 7.23321 12.914C6.57417 12.1073 6.16138 11.1341 6.0418 10.1074C5.92268 9.07945 6.10191 8.03903 6.5584 7.11033C7.01906 6.17423 7.7355 5.38732 8.62481 4.84177C9.51791 4.29189 10.5516 4.00004 11.6063 3.99998ZM11.6063 4.59959C10.6621 4.59965 9.73727 4.86118 8.93926 5.35252L8.93828 5.35349C8.24494 5.77888 7.66961 6.36881 7.26153 7.06834L7.09649 7.37498C6.69092 8.20014 6.53172 9.12472 6.6375 10.0381L6.68926 10.3779C6.83868 11.1641 7.18364 11.9054 7.69707 12.5342C7.92967 12.8185 8.29425 13.4173 8.61602 14.0263C8.849 14.4673 9.08627 14.9639 9.2459 15.4004H13.9656C14.1251 14.9643 14.3618 14.4681 14.5945 14.0273C14.916 13.4185 15.2797 12.8195 15.5125 12.5351C16.0973 11.8216 16.4661 10.9553 16.574 10.039C16.6801 9.12576 16.5203 8.20124 16.115 7.37595V7.37498C15.7047 6.5411 15.0663 5.84071 14.2742 5.35447V5.35349C13.4724 4.85999 12.5487 4.59893 11.6072 4.59959H11.6063ZM11.7371 9.52537L12.4998 9.83982L11.4832 12L11.3143 10.1484L10.7215 9.7158L11.7371 7.55564V9.52537Z" fill="black"/>
</g>
</svg>
