<svg width="20" height="20" viewBox="0 0 20 20" fill="none" xmlns="http://www.w3.org/2000/svg">
<path d="M2.0835 11.2501V5.41675H17.9169V11.2501C17.9169 14.3927 17.9169 15.9642 16.9405 16.9404C15.9642 17.9167 14.3929 17.9167 11.2502 17.9167H8.7502C5.60747 17.9167 4.03612 17.9167 3.0598 16.9404C2.0835 15.9642 2.0835 14.3927 2.0835 11.2501Z" stroke="#BBBBBB" stroke-width="0.6" stroke-linecap="round" stroke-linejoin="round"/>
<path d="M2.0835 5.41659L2.5835 4.74992C3.56492 3.44135 4.05563 2.78707 4.75945 2.43516C5.46327 2.08325 6.28112 2.08325 7.91683 2.08325H12.0835C13.7192 2.08325 14.537 2.08325 15.2409 2.43516C15.9447 2.78707 16.4354 3.44135 17.4169 4.74992L17.9169 5.41659" stroke="#BBBBBB" stroke-width="0.6" stroke-linecap="round" stroke-linejoin="round"/>
<path d="M12.5 11.25C12.5 11.25 10.6588 8.75 9.99995 8.75C9.3412 8.75 7.5 11.25 7.5 11.25M9.99995 9.16667L10 14.5833" stroke="#BBBBBB" stroke-width="0.6" stroke-linecap="round" stroke-linejoin="round"/>
</svg>
