<svg preserveAspectRatio="none" width="100%" height="100%" overflow="visible" style="display: block;" viewBox="0 0 20 20" fill="none" xmlns="http://www.w3.org/2000/svg">
<g id="Frame">
<path id="Vector" d="M12.0832 8.74992C12.0832 9.9005 11.1504 10.8333 9.99983 10.8333C8.84925 10.8333 7.9165 9.9005 7.9165 8.74992C7.9165 7.59934 8.84925 6.6666 9.99983 6.6666C11.1504 6.6666 12.0832 7.59934 12.0832 8.74992Z" stroke="#000000" stroke-width="0.833333" stroke-linecap="round" stroke-linejoin="round"/>
<path id="Vector_2" d="M13.3333 2.91667C15.3995 2.91667 16.8253 3.23684 17.6108 3.48027C18.063 3.62043 18.3333 4.04908 18.3333 4.52254V12.6519C18.3333 13.5812 17.3099 14.2803 16.3968 14.1079C15.6134 13.96 14.5922 13.8412 13.3333 13.8412C9.37425 13.8412 8.42467 15.3459 2.62067 14.066C2.06054 13.9425 1.66667 13.4387 1.66667 12.8652V4.51763C1.66667 3.70443 2.43399 3.11138 3.23165 3.26968C8.49725 4.31456 9.51742 2.91667 13.3333 2.91667Z" stroke="#000000" stroke-width="0.833333" stroke-linecap="round" stroke-linejoin="round"/>
<path id="Vector_3" d="M1.66667 6.25C3.29278 6.25 4.75403 4.92089 4.94084 3.54514M15.4171 3.33333C15.4171 5.03303 16.8879 6.64082 18.3333 6.64082M18.3333 11.25C16.7507 11.25 15.2167 12.3418 15.085 13.8319M5.00041 14.1634C5.00041 12.3225 3.50803 10.8301 1.66708 10.8301" stroke="#000000" stroke-width="0.833333" stroke-linecap="round" stroke-linejoin="round"/>
<path id="Vector_4" d="M15.8333 16.4441C15.1431 16.3304 14.3098 16.25 13.3337 16.25C9.75508 16.25 8.63533 17.6332 4.16667 16.8356" stroke="#000000" stroke-width="0.833333" stroke-linecap="round" stroke-linejoin="round"/>
</g>
</svg>
