<svg preserveAspectRatio="none" width="100%" height="100%" overflow="visible" style="display: block;" viewBox="0 0 20 20" fill="none" xmlns="http://www.w3.org/2000/svg">
<g id="Frame">
<path id="Vector" d="M1.66667 10C1.66667 7.0521 1.66667 5.57814 2.544 4.59408C2.68433 4.43669 2.83898 4.29113 3.00622 4.15906C4.05178 3.33333 5.61785 3.33333 8.75 3.33333H11.25C14.3822 3.33333 15.9482 3.33333 16.9937 4.15906C17.161 4.29113 17.3157 4.43669 17.456 4.59408C18.3333 5.57814 18.3333 7.0521 18.3333 10C18.3333 12.9479 18.3333 14.4218 17.456 15.4059C17.3157 15.5633 17.161 15.7088 16.9937 15.8409C15.9482 16.6667 14.3822 16.6667 11.25 16.6667H8.75C5.61785 16.6667 4.05178 16.6667 3.00622 15.8409C2.83898 15.7088 2.68433 15.5633 2.544 15.4059C1.66667 14.4218 1.66667 12.9479 1.66667 10Z" stroke="#000000" stroke-linecap="round" stroke-linejoin="round"/>
<path id="Vector_2" d="M8.33333 13.3333H9.58333" stroke="#000000" stroke-miterlimit="10" stroke-linecap="round" stroke-linejoin="round"/>
<path id="Vector_3" d="M12.0833 13.3333H15" stroke="#000000" stroke-miterlimit="10" stroke-linecap="round" stroke-linejoin="round"/>
<path id="Vector_4" d="M1.66667 7.5H18.3333" stroke="#000000" stroke-linecap="round" stroke-linejoin="round"/>
</g>
</svg>
