<svg width="16" height="16" viewBox="0 0 16 16" fill="none" xmlns="http://www.w3.org/2000/svg">
<g clip-path="url(#clip0_1_7511)">
<path d="M13.8088 4.75199L13.6448 5.12932C13.6192 5.19077 13.576 5.24325 13.5206 5.28017C13.4652 5.31709 13.4001 5.33679 13.3335 5.33679C13.2669 5.33679 13.2018 5.31709 13.1464 5.28017C13.091 5.24325 13.0478 5.19077 13.0222 5.12932L12.8582 4.75199C12.5698 4.08447 12.0417 3.54927 11.3782 3.25199L10.8722 3.02599C10.8108 2.99775 10.7588 2.9525 10.7223 2.89561C10.6859 2.83871 10.6665 2.77256 10.6665 2.70499C10.6665 2.63742 10.6859 2.57126 10.7223 2.51437C10.7588 2.45747 10.8108 2.41223 10.8722 2.38399L11.3502 2.17132C12.0304 1.86557 12.5675 1.31058 12.8508 0.620655L13.0202 0.213322C13.0449 0.150224 13.0881 0.0960537 13.1442 0.0578717C13.2002 0.0196897 13.2664 -0.000732422 13.3342 -0.000732422C13.4019 -0.000732422 13.4682 0.0196897 13.5242 0.0578717C13.5802 0.0960537 13.6234 0.150224 13.6482 0.213322L13.8168 0.619988C14.0998 1.31004 14.6367 1.86528 15.3168 2.17132L15.7955 2.38465C15.8567 2.41297 15.9085 2.45822 15.9448 2.51504C15.9811 2.57186 16.0004 2.63789 16.0004 2.70532C16.0004 2.77276 15.9811 2.83878 15.9448 2.89561C15.9085 2.95243 15.8567 2.99767 15.7955 3.02599L15.2888 3.25132C14.6254 3.5489 14.0975 4.08434 13.8095 4.75199M5.66683 3.99999H4.3335V12H5.66683V3.99999ZM2.66683 6.66666H1.3335V9.33332H2.66683V6.66666ZM8.66683 1.33332H7.3335V14.6667H8.66683V1.33332ZM11.6668 5.33332H10.3335V12H11.6668V5.33332ZM14.6668 6.66666H13.3335V9.33332H14.6668V6.66666Z" fill="white"/>
</g>
<defs>
<clipPath id="clip0_1_7511">
<rect width="16" height="16" fill="white"/>
</clipPath>
</defs>
</svg>
