<svg width="20" height="20" viewBox="0 0 20 20" fill="none" xmlns="http://www.w3.org/2000/svg">
<path d="M2.0835 10L3.75016 10.8333" stroke="#777777" stroke-linecap="round" stroke-linejoin="round"/>
<path d="M17.9167 10.4165L16.25 10.8332" stroke="#777777" stroke-linecap="round" stroke-linejoin="round"/>
<path d="M6.6665 14.5833L6.87123 14.0715C7.17568 13.3104 7.3279 12.9298 7.64535 12.7149C7.96278 12.5 8.37267 12.5 9.19242 12.5H10.8073C11.627 12.5 12.0369 12.5 12.3543 12.7149C12.6718 12.9298 12.824 13.3104 13.1284 14.0715L13.3332 14.5833" stroke="#777777" stroke-linecap="round" stroke-linejoin="round"/>
<path d="M1.6665 14.1665V16.5682C1.6665 16.8838 1.86713 17.1723 2.18474 17.3135C2.39082 17.4051 2.58765 17.4998 2.82532 17.4998H4.25769C4.49535 17.4998 4.69219 17.4051 4.89827 17.3135C5.21588 17.1723 5.4165 16.8838 5.4165 16.5682V14.9998" stroke="#777777" stroke-linecap="round" stroke-linejoin="round"/>
<path d="M14.5835 14.9998V16.5682C14.5835 16.8838 14.7842 17.1723 15.1017 17.3135C15.3078 17.4051 15.5047 17.4998 15.7423 17.4998H17.1747C17.4123 17.4998 17.6092 17.4051 17.8152 17.3135C18.1328 17.1723 18.3335 16.8838 18.3335 16.5682V14.1665" stroke="#777777" stroke-linecap="round" stroke-linejoin="round"/>
<path d="M16.6665 7.08317L17.4998 6.6665" stroke="#777777" stroke-linecap="round" stroke-linejoin="round"/>
<path d="M3.33333 7.08317L2.5 6.6665" stroke="#777777" stroke-linecap="round" stroke-linejoin="round"/>
<path d="M3.75 7.5L4.65692 4.77924C5.0236 3.67921 5.20693 3.12919 5.64342 2.8146C6.07989 2.5 6.65966 2.5 7.8192 2.5H12.1808C13.3403 2.5 13.9201 2.5 14.3566 2.8146C14.7931 3.12919 14.9764 3.67921 15.3431 4.77924L16.25 7.5" stroke="#777777" stroke-linecap="round" stroke-linejoin="round"/>
<path d="M3.74984 7.5H16.2498C17.0475 8.34458 18.3332 9.52075 18.3332 10.833V13.7252C18.3332 14.2006 18.0169 14.6007 17.5972 14.6562L14.9998 15H4.99984L2.40247 14.6562C1.9828 14.6007 1.6665 14.2006 1.6665 13.7252V10.833C1.6665 9.52075 2.95216 8.34458 3.74984 7.5Z" stroke="#777777" stroke-linecap="round" stroke-linejoin="round"/>
</svg>
