<svg width="16" height="16" viewBox="0 0 16 16" fill="none" xmlns="http://www.w3.org/2000/svg">
<path d="M10.3332 12C10.3332 13.2887 9.2885 14.3333 7.99984 14.3333C6.71117 14.3333 5.6665 13.2887 5.6665 12" stroke="black" stroke-linecap="round" stroke-linejoin="round"/>
<path d="M12.8207 12.0001H3.17925C2.52797 12.0001 2 11.4721 2 10.8208C2 10.5081 2.12424 10.2081 2.34539 9.98695L2.74755 9.58481C3.12262 9.20975 3.33333 8.70101 3.33333 8.17061V6.33341C3.33333 3.75609 5.42267 1.66675 8 1.66675C10.5773 1.66675 12.6667 3.75608 12.6667 6.33341V8.17061C12.6667 8.70101 12.8774 9.20975 13.2525 9.58481L13.6546 9.98695C13.8757 10.2081 14 10.5081 14 10.8208C14 11.4721 13.472 12.0001 12.8207 12.0001Z" stroke="black" stroke-linecap="round" stroke-linejoin="round"/>
</svg>
