<svg width="20" height="20" viewBox="0 0 20 20" fill="none" xmlns="http://www.w3.org/2000/svg">
<path d="M17.0831 8.74984V8.33317C17.0831 5.19047 17.0831 3.61913 16.1068 2.64281C15.1305 1.6665 13.5592 1.6665 10.4164 1.6665H9.58317C6.44053 1.6665 4.8692 1.6665 3.89289 2.6428C2.91658 3.6191 2.91656 5.19044 2.91654 8.33311L2.9165 12.0832C2.91648 14.8227 2.91647 16.1925 3.67307 17.1144C3.8116 17.2833 3.96639 17.438 4.13519 17.5766C5.05715 18.3332 6.42691 18.3332 9.16642 18.3332" stroke="#777777" stroke-linecap="round" stroke-linejoin="round"/>
<path d="M6.25 5.8335H13.75" stroke="#777777" stroke-linecap="round" stroke-linejoin="round"/>
<path d="M6.25 10H11.25" stroke="#777777" stroke-linecap="round" stroke-linejoin="round"/>
<path d="M17.0835 16.6665V14.1665C17.0835 12.9753 15.9642 11.6665 14.5835 11.6665C13.2027 11.6665 12.0835 12.9753 12.0835 14.1665V17.0832C12.0835 17.7735 12.6432 18.3332 13.3335 18.3332C14.0238 18.3332 14.5835 17.7735 14.5835 17.0832V14.1665" stroke="#777777" stroke-linecap="round" stroke-linejoin="round"/>
</svg>
