<svg width="20" height="20" viewBox="0 0 20 20" fill="none" xmlns="http://www.w3.org/2000/svg">
<path d="M18.3332 8.75016L10.7353 2.35189C10.5294 2.17855 10.2689 2.0835 9.99984 2.0835C9.73075 2.0835 9.47025 2.17855 9.26442 2.35189L1.6665 8.75016" stroke="#777777" stroke-linecap="round" stroke-linejoin="round"/>
<path d="M17.0832 4.1665V12.9165C17.0832 15.2735 17.0832 16.452 16.3509 17.1843C15.6187 17.9165 14.4402 17.9165 12.0832 17.9165H7.9165C5.55948 17.9165 4.38097 17.9165 3.64874 17.1843C2.9165 16.452 2.9165 15.2735 2.9165 12.9165V7.9165" stroke="#777777" stroke-linecap="round" stroke-linejoin="round"/>
<path d="M8.74984 9.5835H7.9165V10.4168H8.74984V9.5835Z" stroke="#777777" stroke-linecap="round" stroke-linejoin="round"/>
<path d="M12.0833 9.5835H11.25V10.4168H12.0833V9.5835Z" stroke="#777777" stroke-linecap="round" stroke-linejoin="round"/>
<path d="M8.74984 12.9165H7.9165V13.7498H8.74984V12.9165Z" stroke="#777777" stroke-linecap="round" stroke-linejoin="round"/>
<path d="M12.0833 12.9165H11.25V13.7498H12.0833V12.9165Z" stroke="#777777" stroke-linecap="round" stroke-linejoin="round"/>
</svg>
