<svg width="20" height="20" viewBox="0 0 20 20" fill="none" xmlns="http://www.w3.org/2000/svg">
<path d="M11.6665 1.83345C11.128 1.72413 10.5706 1.66675 9.99984 1.66675C5.39746 1.66675 1.6665 5.39771 1.6665 10.0001C1.6665 14.6024 5.39746 18.3334 9.99984 18.3334C14.6022 18.3334 18.3332 14.6024 18.3332 10.0001C18.3332 9.42933 18.2758 8.87191 18.1665 8.33341" stroke="#BBBBBB" stroke-width="0.6" stroke-linecap="round"/>
<path d="M10.0002 7.50008C9.07966 7.50008 8.3335 8.05972 8.3335 8.75008C8.3335 9.44041 9.07966 10.0001 10.0002 10.0001C10.9207 10.0001 11.6668 10.5597 11.6668 11.2501C11.6668 11.9404 10.9207 12.5001 10.0002 12.5001M10.0002 7.50008C10.7258 7.50008 11.3432 7.84791 11.572 8.33341M10.0002 7.50008V6.66675M10.0002 12.5001C9.2745 12.5001 8.65716 12.1522 8.42833 11.6667M10.0002 12.5001V13.3334" stroke="#BBBBBB" stroke-width="0.6" stroke-linecap="round"/>
<path d="M14.165 5.83488L17.645 2.35305M18.3317 5.40008L18.2332 2.82384C18.2332 2.21664 17.8707 1.83831 17.2103 1.7906L14.6069 1.66821" stroke="#BBBBBB" stroke-width="0.6" stroke-linecap="round"/>
</svg>
