<svg width="16" height="16" viewBox="0 0 16 16" fill="none" xmlns="http://www.w3.org/2000/svg">
<path d="M2 4.6665H4" stroke="black" stroke-linecap="round" stroke-linejoin="round"/>
<path d="M2 11.3335H6" stroke="black" stroke-linecap="round" stroke-linejoin="round"/>
<path d="M12 11.3335H14" stroke="black" stroke-linecap="round" stroke-linejoin="round"/>
<path d="M10 4.6665H14" stroke="black" stroke-linecap="round" stroke-linejoin="round"/>
<path d="M4 4.6665C4 4.04525 4 3.73462 4.10149 3.48959C4.23682 3.16289 4.49639 2.90332 4.82309 2.768C5.06812 2.6665 5.37875 2.6665 6 2.6665C6.62125 2.6665 6.93187 2.6665 7.17693 2.768C7.5036 2.90332 7.7632 3.16289 7.89853 3.48959C8 3.73462 8 4.04525 8 4.6665C8 5.28776 8 5.59838 7.89853 5.84342C7.7632 6.17012 7.5036 6.42968 7.17693 6.56501C6.93187 6.6665 6.62125 6.6665 6 6.6665C5.37875 6.6665 5.06812 6.6665 4.82309 6.56501C4.49639 6.42968 4.23682 6.17012 4.10149 5.84342C4 5.59838 4 5.28776 4 4.6665Z" stroke="black"/>
<path d="M8 11.3335C8 10.7122 8 10.4016 8.10147 10.1566C8.2368 9.8299 8.4964 9.5703 8.82307 9.43496C9.06813 9.3335 9.37873 9.3335 10 9.3335C10.6213 9.3335 10.9319 9.3335 11.1769 9.43496C11.5036 9.5703 11.7632 9.8299 11.8985 10.1566C12 10.4016 12 10.7122 12 11.3335C12 11.9548 12 12.2654 11.8985 12.5104C11.7632 12.8371 11.5036 13.0967 11.1769 13.232C10.9319 13.3335 10.6213 13.3335 10 13.3335C9.37873 13.3335 9.06813 13.3335 8.82307 13.232C8.4964 13.0967 8.2368 12.8371 8.10147 12.5104C8 12.2654 8 11.9548 8 11.3335Z" stroke="black"/>
</svg>
