<svg width="20" height="20" viewBox="0 0 20 20" fill="none" xmlns="http://www.w3.org/2000/svg">
<path d="M1.6665 6.66667C1.6665 7.78482 8.41225 10.8333 9.98825 10.8333C11.5642 10.8333 18.31 7.78482 18.31 6.66667C18.31 5.54852 11.5642 2.5 9.98825 2.5C8.41225 2.5 1.6665 5.54852 1.6665 6.66667Z" stroke="#777777" stroke-linecap="round" stroke-linejoin="round"/>
<path d="M4.99512 9.1665L5.19938 13.8581C5.20346 13.952 5.21362 14.0461 5.24084 14.1361C5.32498 14.4143 5.48007 14.667 5.71667 14.8368C7.56788 16.1653 12.4084 16.1653 14.2596 14.8368C14.4963 14.667 14.6513 14.4143 14.7355 14.1361C14.7627 14.0461 14.7728 13.952 14.777 13.8581L14.9812 9.1665" stroke="#777777" stroke-linecap="round" stroke-linejoin="round"/>
<path d="M17.061 7.9165V13.7498M17.061 13.7498C16.401 14.9551 16.1091 15.6008 15.8127 16.6665C15.7484 17.0457 15.7995 17.2368 16.0608 17.4064C16.167 17.4753 16.2946 17.4998 16.4211 17.4998H17.6881C17.8228 17.4998 17.9587 17.4718 18.0696 17.3953C18.3126 17.2278 18.3751 17.044 18.3092 16.6665C18.0494 15.677 17.7184 15.0005 17.061 13.7498Z" stroke="#777777" stroke-linecap="round" stroke-linejoin="round"/>
</svg>
